<svg xmlns="http://www.w3.org/2000/svg" width="102" height="80" viewBox="0 0 102 80" fill="white"><path d="M5.54799 79.6828L4.78327 79.5559C-0.82474 75.8761 -1.2071 67.6282 2.10672 62.1719C2.74399 57.8577 4.4009 53.9241 8.09709 51.3863C10.6462 48.8485 13.3227 46.4375 15.8718 44.0266C15.7444 38.8241 16.1267 33.6216 16.6366 28.4191C19.8229 25.3738 23.9015 23.3435 27.0878 20.2982C26.0682 16.7452 26.0682 10.6545 30.1467 9.00493C33.7155 8.49737 28.7447 4.81756 32.186 2.78731C34.4802 -1.90763 41.6177 1.26463 40.9804 6.08646C40.2157 8.1167 38.6862 9.63938 41.7451 10.6545C43.402 14.0805 45.5688 16.1108 49.7748 15.857C55.7651 16.6183 61.7555 17.6335 67.7459 18.5217C72.0793 15.7301 76.7952 13.0654 80.2364 8.87804C83.8052 5.83268 87.3739 2.40664 91.7074 0.376398C98.2075 -1.90763 104.963 6.72091 100.629 12.3041C98.2075 15.857 93.4917 16.6183 89.7955 18.3948C85.3346 19.9175 81.0012 21.1864 77.0501 23.7242C73.2264 24.7393 72.2068 27.1502 74.1186 30.5763C74.6284 33.1141 78.5795 32.4796 78.0697 35.6519C82.7855 36.1594 87.7563 36.0325 92.0897 38.1897C94.6388 40.4737 99.737 45.2955 97.0604 48.5947C95.1486 49.356 94.2564 50.6249 94.7663 52.6552C94.8937 63.0602 90.8152 74.0996 81.8933 79.9366C56.6573 79.9366 31.4213 80.1903 6.18527 79.6828H5.54799ZM17.1464 78.4139L18.0386 78.0332C21.3524 76.1298 21.4798 68.0089 16.6366 68.8971C13.0678 70.6736 12.6855 78.0332 17.1464 78.4139ZM19.0582 72.0694C19.568 73.4652 18.2935 78.287 16.2542 75.8761C12.6855 73.8458 17.5287 67.1206 19.0582 72.0694ZM24.2838 77.7794C25.5584 78.6677 27.3427 78.1601 28.3624 77.145C31.2938 74.3534 31.6762 67.6282 27.2153 66.2324C22.4995 67.2475 20.7151 74.6072 24.2838 77.7794ZM28.7447 72.8307C28.6173 74.2265 27.2153 78.0332 25.4309 75.4954C23.9015 74.0996 23.5191 74.7341 24.4113 73.592C20.5876 69.2778 31.0389 65.3442 28.7447 72.8307ZM44.0393 78.5408C44.5491 78.1601 45.1864 77.7794 45.6962 77.3988C49.3924 75.6223 47.0982 75.2416 44.5491 74.7341C46.8433 72.5769 51.814 74.2265 52.5788 69.5316C54.7455 67.2475 50.5395 68.2627 49.3924 67.5013C48.6277 64.7097 53.8533 67.5013 54.2357 65.4711C55.5102 62.5526 56.275 58.8728 51.6866 59.8879C50.9219 56.5888 56.5299 59.8879 56.275 57.2232C56.9122 54.3047 56.6573 51.0056 52.5788 51.8938C51.4317 48.4678 57.1671 52.1476 56.5299 49.6098C56.275 48.3409 57.4221 45.8031 55.2553 46.3107C51.1768 45.8031 46.9708 45.6762 42.8922 45.5493C42.7648 54.3047 41.4902 63.4408 36.6469 71.0542C34.8626 73.9727 32.3135 76.1298 30.0193 78.5408H44.0393ZM82.6581 77.5256C82.7855 77.3987 82.913 77.2719 83.0404 77.145C85.2072 75.8761 84.4424 75.4954 82.4032 75.6223C78.707 76.1298 82.6581 72.9576 84.4424 74.0996C86.2268 74.8609 86.9915 73.3383 87.7563 72.0694C91.0701 68.7702 86.9915 69.6584 85.3346 68.3895C86.4817 65.8517 91.325 69.4047 91.1975 64.9635C94.7663 61.2837 84.6974 62.4257 89.2857 60.3955C92.0897 61.0299 93.2368 60.0148 92.9819 57.0963C95.7859 53.5434 86.8641 55.0661 90.3054 52.9089C92.8544 53.4165 94.3839 52.4014 92.5995 49.8636C89.0308 49.2291 85.3346 49.356 81.7659 48.7216C81.2561 58.4921 79.4717 69.024 72.2068 76.2567C67.8733 79.6828 75.1383 78.287 77.6873 78.5408C79.3443 78.287 81.3835 79.1752 82.6581 77.5256ZM1.72435 69.4047C1.46944 73.2114 3.76363 79.5559 8.60691 77.2719C13.3227 74.2265 13.8325 66.74 10.2638 62.6795C6.56763 62.4257 12.9404 66.8669 11.156 69.2778C11.6658 73.592 7.33236 78.4139 4.4009 73.2114C2.10672 73.4652 6.56763 71.308 3.12636 71.1811C2.87145 69.4047 2.74399 65.0904 1.72435 69.4047ZM18.6758 64.8366C19.3131 64.456 19.9504 64.2022 20.4602 63.9484C19.4406 60.1417 15.2345 67.2475 18.6758 64.8366ZM25.4309 60.903C26.9604 63.6946 30.5291 65.2173 33.4606 63.6946C39.4509 60.3955 40.9804 52.4014 39.4509 46.3107C39.8333 43.646 35.6273 41.3619 36.6469 45.0418C39.0686 50.3711 38.1764 57.9845 33.0782 61.2837C29.7644 61.9181 30.4017 62.045 31.1664 61.0299C29.6369 58.9997 26.9604 56.7156 25.6858 56.5888C29.7644 56.8425 26.7055 53.4165 24.6662 53.7972C22.6269 49.6098 23.2642 59.3803 25.4309 60.903ZM21.3524 58.2383C21.3524 57.6039 21.2249 57.0963 21.2249 56.5888C20.5876 52.5283 15.6169 58.9997 13.3227 59.761C10.6462 60.903 14.2149 64.5828 15.6169 62.045C17.5287 60.7761 19.4406 59.5072 21.3524 58.2383ZM79.0893 47.4527C79.0893 42.2502 73.8637 38.951 69.0204 38.8241C66.089 39.0779 59.8437 36.667 59.2064 39.0779C62.1379 42.2502 58.4417 44.6611 57.8044 47.3258C64.9419 48.0871 71.9519 48.9753 79.0893 49.2291C79.0893 48.5947 79.0893 48.0871 79.0893 47.4527ZM76.0304 47.7064C78.707 49.356 76.2853 44.6611 76.0304 47.7064ZM71.3146 47.4527C73.9912 47.3258 70.4224 45.0418 71.3146 47.4527ZM65.5791 46.6913C68.1282 48.0871 65.8341 43.646 65.5791 46.6913ZM60.2261 46.3107C63.285 46.6913 59.3339 43.5191 60.2261 46.3107ZM96.1683 46.1838V46.0569C94.5114 41.8695 90.8152 38.1897 85.9719 37.9359C82.913 37.5552 79.8541 37.4283 76.7952 37.1746C80.109 38.6972 82.1483 42.2502 83.4228 44.9149C87.6288 45.4224 91.8348 45.93 96.1683 46.1838ZM58.5691 41.7426C57.0397 36.667 52.1964 33.6216 47.0982 33.6216C42.6373 33.241 37.794 32.3527 33.7155 34.7636C28.9997 36.667 24.6662 39.2048 20.5876 42.2502C26.1957 39.8393 31.4213 36.4132 37.4117 35.1443C41.6177 36.667 41.8726 43.1384 47.4806 41.7426C50.6669 41.3619 57.1671 43.8997 58.5691 41.7426ZM72.5892 36.7939C73.8637 35.9057 78.1972 34.8905 74.3735 34.0023C64.0497 32.8603 53.8533 31.3376 43.5295 30.4494C41.4902 32.4796 48.8826 31.8452 50.412 32.7334C55.0004 33.6216 58.3142 37.3014 63.285 36.7939C66.2164 36.5401 70.0401 38.5703 72.5892 36.7939ZM69.1479 31.9721C71.9519 32.6065 73.4813 32.2258 72.0793 28.7998C70.5499 24.2318 68.6381 29.688 69.1479 31.9721ZM65.7066 31.5914C66.9812 31.9721 67.8733 31.5914 67.7459 30.0687C68.6381 26.3889 60.0986 32.2258 65.7066 31.5914ZM55.7651 30.3225C57.5495 30.7032 57.8044 28.7998 58.1868 27.5309C58.3142 24.8662 63.1575 22.836 58.1868 22.836C56.5299 23.0897 51.3042 20.9326 51.4317 22.7091C53.216 25.8813 49.7748 31.4645 55.7651 30.3225ZM48.5002 29.3074C49.7748 29.688 48.8826 28.2922 49.01 27.5309C48.2453 23.978 47.2257 18.7755 52.8337 20.9326C56.1475 21.3133 59.5888 21.694 62.9026 22.2015C64.687 21.3133 67.3635 19.283 63.285 19.4099C55.8926 18.2679 48.3728 16.999 40.8529 16.6183C40.9804 20.1713 42.7648 23.7242 43.0197 27.2771C42.8922 30.0687 46.7159 28.7998 48.5002 29.3074ZM45.5688 28.0385C47.9904 28.7998 44.804 24.6124 45.5688 28.0385ZM44.804 23.0897C47.2257 24.7393 45.0589 20.0444 44.804 23.0897ZM43.7844 19.283C46.206 20.1713 42.8922 15.9839 43.7844 19.283ZM69.0204 22.836L69.5302 22.5822C72.4617 19.9175 79.2168 19.0293 78.9619 14.715C79.0893 12.0503 77.305 13.9536 76.0304 14.715C70.8048 18.3948 65.4517 21.8208 60.481 25.7544C58.4417 31.2107 66.7262 23.5973 69.0204 22.836ZM31.4213 15.857C29.5095 17.7604 33.7155 17.8872 35.1175 16.2377C36.6469 14.3343 41.6177 15.857 41.3628 13.0654C41.3628 8.37048 36.2646 14.8419 33.9704 11.289C29.382 7.35536 32.6958 14.715 31.4213 15.857ZM83.0404 12.5579L83.6777 12.0503C86.4817 11.289 87.3739 6.21335 88.1386 10.7814C90.0504 14.8419 96.0408 15.7301 98.8448 12.1772C102.923 8.1167 98.4625 0.883959 93.2368 1.51841C88.3935 2.9142 84.9523 6.97469 81.1286 10.0201C78.8344 11.6696 79.0893 16.6183 82.2757 13.0654L83.0404 12.5579ZM96.8055 12.1772C95.6585 12.9385 94.129 13.1923 92.8544 12.6847C88.0112 11.5427 88.2661 3.54865 93.2368 3.04109C95.2761 2.40664 98.5899 3.42176 94.8937 4.81755C92.727 5.83268 87.8837 11.6696 93.2368 9.51249C94.5114 8.75115 101.139 4.56377 98.335 8.1167C96.6781 9.00493 88.7759 12.3041 94.8937 11.289C97.0605 10.2738 100.629 10.0201 96.8055 12.1772ZM36.6469 8.49737C37.2842 8.75115 38.0489 8.75115 38.5588 8.37048C41.8726 4.30999 32.8233 5.83268 36.6469 8.49737ZM36.5195 5.70579L37.4117 5.19822C38.4313 4.05621 40.8529 7.35536 40.0882 4.05621C38.4313 1.77219 31.0389 3.16798 35.6273 5.83268L36.5195 5.70579Z" fill="var(--base)"></path></svg>